<?xml version="1.0" standalone="no"?>
<!DOCTYPE svg PUBLIC "-//W3C//DTD SVG 20010904//EN"
 "http://www.w3.org/TR/2001/REC-SVG-20010904/DTD/svg10.dtd">
<svg version="1.0" xmlns="http://www.w3.org/2000/svg"
 width="1280.000000pt" height="1280.000000pt" viewBox="0 0 1280.000000 1280.000000"
 preserveAspectRatio="xMidYMid meet">
<g transform="translate(0.000000,1280.000000) scale(0.100000,-0.100000)"
fill="#000000" stroke="none">
<path d="M5995 11669 c-986 -76 -1946 -436 -2750 -1034 -263 -195 -584 -491
-808 -745 -764 -867 -1218 -1947 -1307 -3109 -13 -174 -13 -587 1 -766 68
-912 373 -1798 879 -2552 201 -298 379 -513 659 -794 451 -450 871 -750 1435
-1024 604 -294 1237 -464 1911 -514 180 -14 590 -14 770 0 911 68 1772 363
2531 867 594 395 1091 892 1486 1486 503 758 799 1621 867 2531 14 179 14 592
1 766 -89 1162 -543 2242 -1307 3109 -141 160 -414 426 -568 555 -861 718
-1901 1142 -3010 1224 -161 13 -628 12 -790 0z m625 -789 c654 -36 1234 -190
1805 -480 1326 -672 2241 -1969 2425 -3435 151 -1215 -190 -2422 -955 -3372
-1057 -1313 -2744 -1923 -4391 -1588 -1756 357 -3142 1743 -3499 3499 -94 465
-114 944 -59 1424 93 816 428 1616 948 2266 801 1003 1989 1616 3261 1685 221
12 262 12 465 1z"/>
<path d="M3059 8611 c-102 -33 -147 -144 -100 -246 34 -74 3292 -5710 3314
-5733 68 -73 186 -73 254 0 19 20 3261 5625 3314 5730 42 83 10 196 -68 234
-47 22 -118 23 -160 1 -18 -9 -732 -447 -1588 -972 -856 -525 -1564 -955
-1575 -955 -10 0 -738 428 -1617 951 -879 523 -1614 959 -1635 970 -44 22
-104 31 -139 20z"/>
</g>
</svg>
